%TF.GenerationSoftware,KiCad,Pcbnew,8.0.3*%
%TF.CreationDate,2024-06-28T15:17:55+09:00*%
%TF.ProjectId,KICAD-2,4b494341-442d-4322-9e6b-696361645f70,rev?*%
%TF.SameCoordinates,Original*%
%TF.FileFunction,Copper,L1,Top*%
%TF.FilePolarity,Positive*%
%FSLAX46Y46*%
G04 Gerber Fmt 4.6, Leading zero omitted, Abs format (unit mm)*
G04 Created by KiCad (PCBNEW 8.0.3) date 2024-06-28 15:17:55*
%MOMM*%
%LPD*%
G01*
G04 APERTURE LIST*
G04 Aperture macros list*
%AMRoundRect*
0 Rectangle with rounded corners*
0 $1 Rounding radius*
0 $2 $3 $4 $5 $6 $7 $8 $9 X,Y pos of 4 corners*
0 Add a 4 corners polygon primitive as box body*
4,1,4,$2,$3,$4,$5,$6,$7,$8,$9,$2,$3,0*
0 Add four circle primitives for the rounded corners*
1,1,$1+$1,$2,$3*
1,1,$1+$1,$4,$5*
1,1,$1+$1,$6,$7*
1,1,$1+$1,$8,$9*
0 Add four rect primitives between the rounded corners*
20,1,$1+$1,$2,$3,$4,$5,0*
20,1,$1+$1,$4,$5,$6,$7,0*
20,1,$1+$1,$6,$7,$8,$9,0*
20,1,$1+$1,$8,$9,$2,$3,0*%
G04 Aperture macros list end*
%TA.AperFunction,SMDPad,CuDef*%
%ADD10RoundRect,0.237500X-0.237500X0.287500X-0.237500X-0.287500X0.237500X-0.287500X0.237500X0.287500X0*%
%TD*%
%TA.AperFunction,SMDPad,CuDef*%
%ADD11RoundRect,0.237500X0.237500X-0.287500X0.237500X0.287500X-0.237500X0.287500X-0.237500X-0.287500X0*%
%TD*%
%TA.AperFunction,SMDPad,CuDef*%
%ADD12RoundRect,0.282500X0.537500X-0.282500X0.537500X0.282500X-0.537500X0.282500X-0.537500X-0.282500X0*%
%TD*%
%TA.AperFunction,SMDPad,CuDef*%
%ADD13RoundRect,0.287500X0.532500X-0.287500X0.532500X0.287500X-0.532500X0.287500X-0.532500X-0.287500X0*%
%TD*%
%TA.AperFunction,ComponentPad*%
%ADD14R,1.700000X1.700000*%
%TD*%
%TA.AperFunction,ComponentPad*%
%ADD15O,1.700000X1.700000*%
%TD*%
%TA.AperFunction,SMDPad,CuDef*%
%ADD16RoundRect,0.282500X-0.537500X0.282500X-0.537500X-0.282500X0.537500X-0.282500X0.537500X0.282500X0*%
%TD*%
%TA.AperFunction,SMDPad,CuDef*%
%ADD17RoundRect,0.287500X-0.532500X0.287500X-0.532500X-0.287500X0.532500X-0.287500X0.532500X0.287500X0*%
%TD*%
%TA.AperFunction,ComponentPad*%
%ADD18R,2.000000X4.600000*%
%TD*%
%TA.AperFunction,ComponentPad*%
%ADD19O,2.000000X4.200000*%
%TD*%
%TA.AperFunction,ComponentPad*%
%ADD20O,4.200000X2.000000*%
%TD*%
%TA.AperFunction,ComponentPad*%
%ADD21R,1.600000X1.600000*%
%TD*%
%TA.AperFunction,ComponentPad*%
%ADD22O,1.600000X1.600000*%
%TD*%
%TA.AperFunction,ViaPad*%
%ADD23C,0.600000*%
%TD*%
%TA.AperFunction,Conductor*%
%ADD24C,0.200000*%
%TD*%
G04 APERTURE END LIST*
D10*
%TO.P,D4,1,K*%
%TO.N,PE1_GLED*%
X107696000Y-99709000D03*
%TO.P,D4,2,A*%
%TO.N,Net-(D4-A)*%
X107696000Y-101459000D03*
%TD*%
D11*
%TO.P,D6,1,K*%
%TO.N,PD5_WLED*%
X107696000Y-86219000D03*
%TO.P,D6,2,A*%
%TO.N,Net-(D6-A)*%
X107696000Y-84469000D03*
%TD*%
D12*
%TO.P,SW5,1,1*%
%TO.N,D_GND*%
X173127750Y-121903750D03*
D13*
%TO.P,SW5,2,2*%
%TO.N,N_RESET*%
X173122750Y-114808750D03*
%TD*%
D11*
%TO.P,D2,1,K*%
%TO.N,D_GND*%
X107696000Y-81139000D03*
%TO.P,D2,2,A*%
%TO.N,Net-(D2-A)*%
X107696000Y-79389000D03*
%TD*%
D14*
%TO.P,J6,1,Pin_1*%
%TO.N,+3.3V*%
X132589750Y-117085750D03*
D15*
%TO.P,J6,2,Pin_2*%
%TO.N,PA13_SWDIO*%
X135129750Y-117085750D03*
%TO.P,J6,3,Pin_3*%
%TO.N,PA14_SWCLK*%
X137669750Y-117085750D03*
%TO.P,J6,4,Pin_4*%
%TO.N,D_GND*%
X140209750Y-117085750D03*
%TD*%
D14*
%TO.P,J8,1,Pin_1*%
%TO.N,+3.3VA*%
X160529750Y-117085750D03*
D15*
%TO.P,J8,2,Pin_2*%
%TO.N,Net-(J8-Pin_2)*%
X163069750Y-117085750D03*
%TO.P,J8,3,Pin_3*%
%TO.N,AGND*%
X165609750Y-117085750D03*
%TD*%
D14*
%TO.P,J4,1,Pin_1*%
%TO.N,BOOT0*%
X109729750Y-117085750D03*
D15*
%TO.P,J4,2,Pin_2*%
%TO.N,+3.3V*%
X112269750Y-117085750D03*
%TD*%
D10*
%TO.P,D8,1,K*%
%TO.N,D_GND*%
X107696000Y-74309000D03*
%TO.P,D8,2,A*%
%TO.N,Net-(D8-A)*%
X107696000Y-76059000D03*
%TD*%
D16*
%TO.P,SW3,1,1*%
%TO.N,PB12_COL2*%
X198711750Y-114807750D03*
D17*
%TO.P,SW3,2,2*%
%TO.N,PD10_ROW1*%
X198716750Y-121902750D03*
%TD*%
D16*
%TO.P,SW1,1,1*%
%TO.N,PB14_COL1*%
X179661750Y-114807750D03*
D17*
%TO.P,SW1,2,2*%
%TO.N,PD10_ROW1*%
X179666750Y-121902750D03*
%TD*%
D11*
%TO.P,D3,1,K*%
%TO.N,PE3_ALIVE_LED*%
X107696000Y-70979000D03*
%TO.P,D3,2,A*%
%TO.N,Net-(D3-A)*%
X107696000Y-69229000D03*
%TD*%
D12*
%TO.P,SW4,1,1*%
%TO.N,PB12_COL2*%
X192177750Y-121903750D03*
D13*
%TO.P,SW4,2,2*%
%TO.N,PD8_ROW2*%
X192172750Y-114808750D03*
%TD*%
D10*
%TO.P,D5,1,K*%
%TO.N,PD6_BLED*%
X107696000Y-94629000D03*
%TO.P,D5,2,A*%
%TO.N,Net-(D5-A)*%
X107696000Y-96379000D03*
%TD*%
D12*
%TO.P,SW2,1,1*%
%TO.N,PB14_COL1*%
X185827750Y-121903750D03*
D13*
%TO.P,SW2,2,2*%
%TO.N,PD8_ROW2*%
X185822750Y-114808750D03*
%TD*%
D10*
%TO.P,D7,1,K*%
%TO.N,PD4_YLED*%
X107696000Y-89549000D03*
%TO.P,D7,2,A*%
%TO.N,Net-(D7-A)*%
X107696000Y-91299000D03*
%TD*%
D14*
%TO.P,J3,1,Pin_1*%
%TO.N,D_GND*%
X118619750Y-117085750D03*
D15*
%TO.P,J3,2,Pin_2*%
%TO.N,Net-(J3-Pin_2)*%
X121159750Y-117085750D03*
%TO.P,J3,3,Pin_3*%
%TO.N,Net-(J3-Pin_3)*%
X123699750Y-117085750D03*
%TO.P,J3,4,Pin_4*%
%TO.N,+3.3V*%
X126239750Y-117085750D03*
%TD*%
D14*
%TO.P,J7,1,Pin_1*%
%TO.N,+3.3V*%
X146559750Y-117085750D03*
D15*
%TO.P,J7,2,Pin_2*%
%TO.N,PA9_UART_Tx*%
X149099750Y-117085750D03*
%TO.P,J7,3,Pin_3*%
%TO.N,PA10_UART_Rx*%
X151639750Y-117085750D03*
%TO.P,J7,4,Pin_4*%
%TO.N,D_GND*%
X154179750Y-117085750D03*
%TD*%
D14*
%TO.P,J5,1,Pin_1*%
%TO.N,+3.3V*%
X112300000Y-68834000D03*
D15*
%TO.P,J5,2,Pin_2*%
%TO.N,D_GND*%
X112300000Y-71374000D03*
%TO.P,J5,3,Pin_3*%
%TO.N,PA4_SPI1_LCD_NCS*%
X112300000Y-73914000D03*
%TO.P,J5,4,Pin_4*%
%TO.N,PC4_LCD_RST*%
X112300000Y-76454000D03*
%TO.P,J5,5,Pin_5*%
%TO.N,PA2_LCD_DC*%
X112300000Y-78994000D03*
%TO.P,J5,6,Pin_6*%
%TO.N,PD7_SPI1_MOSI_LCD*%
X112300000Y-81534000D03*
%TO.P,J5,7,Pin_7*%
%TO.N,PA5_SPI1_LCD_SCK*%
X112300000Y-84074000D03*
%TO.P,J5,8,Pin_8*%
%TO.N,PC0_LCD_BL*%
X112300000Y-86614000D03*
%TO.P,J5,9,Pin_9*%
%TO.N,PA6_SPI1_MISO_LCD*%
X112300000Y-89154000D03*
%TO.P,J5,10,Pin_10*%
%TO.N,PC10_SPI3_SCK*%
X112300000Y-91694000D03*
%TO.P,J5,11,Pin_11*%
%TO.N,PC15_SPI3_NCS*%
X112300000Y-94234000D03*
%TO.P,J5,12,Pin_12*%
%TO.N,PB2_SPI3_MOSI*%
X112300000Y-96774000D03*
%TO.P,J5,13,Pin_13*%
%TO.N,PC11_SPI3_MISO*%
X112300000Y-99314000D03*
%TO.P,J5,14,Pin_14*%
%TO.N,PC12_SPI3_IRQ*%
X112300000Y-101854000D03*
%TO.P,J5,15,Pin_15*%
%TO.N,unconnected-(J5-Pin_15-Pad15)*%
X196600000Y-89154000D03*
%TO.P,J5,16,Pin_16*%
%TO.N,unconnected-(J5-Pin_16-Pad16)*%
X196600000Y-86614000D03*
%TO.P,J5,17,Pin_17*%
%TO.N,unconnected-(J5-Pin_17-Pad17)*%
X196600000Y-84074000D03*
%TO.P,J5,18,Pin_18*%
%TO.N,unconnected-(J5-Pin_18-Pad18)*%
X196600000Y-81534000D03*
%TD*%
D14*
%TO.P,J2,1,Pin_1*%
%TO.N,+3.3V*%
X111760000Y-59944000D03*
D15*
%TO.P,J2,2,Pin_2*%
X111760000Y-62484000D03*
%TO.P,J2,3,Pin_3*%
%TO.N,D_GND*%
X114300000Y-59944000D03*
%TO.P,J2,4,Pin_4*%
X114300000Y-62484000D03*
%TO.P,J2,5,Pin_5*%
%TO.N,unconnected-(J2-Pin_5-Pad5)*%
X116840000Y-59944000D03*
%TO.P,J2,6,Pin_6*%
%TO.N,PE3_ALIVE_LED*%
X116840000Y-62484000D03*
%TO.P,J2,7,Pin_7*%
%TO.N,unconnected-(J2-Pin_7-Pad7)*%
X119380000Y-59944000D03*
%TO.P,J2,8,Pin_8*%
%TO.N,unconnected-(J2-Pin_8-Pad8)*%
X119380000Y-62484000D03*
%TO.P,J2,9,Pin_9*%
%TO.N,unconnected-(J2-Pin_9-Pad9)*%
X121920000Y-59944000D03*
%TO.P,J2,10,Pin_10*%
%TO.N,unconnected-(J2-Pin_10-Pad10)*%
X121920000Y-62484000D03*
%TO.P,J2,11,Pin_11*%
%TO.N,unconnected-(J2-Pin_11-Pad11)*%
X124460000Y-59944000D03*
%TO.P,J2,12,Pin_12*%
%TO.N,unconnected-(J2-Pin_12-Pad12)*%
X124460000Y-62484000D03*
%TO.P,J2,13,Pin_13*%
%TO.N,N_RESET*%
X127000000Y-59944000D03*
%TO.P,J2,14,Pin_14*%
%TO.N,PC0_LCD_BL*%
X127000000Y-62484000D03*
%TO.P,J2,15,Pin_15*%
%TO.N,unconnected-(J2-Pin_15-Pad15)*%
X129540000Y-59944000D03*
%TO.P,J2,16,Pin_16*%
%TO.N,unconnected-(J2-Pin_16-Pad16)*%
X129540000Y-62484000D03*
%TO.P,J2,17,Pin_17*%
%TO.N,unconnected-(J2-Pin_17-Pad17)*%
X132080000Y-59944000D03*
%TO.P,J2,18,Pin_18*%
%TO.N,PA0_ADC1_IN0*%
X132080000Y-62484000D03*
%TO.P,J2,19,Pin_19*%
%TO.N,unconnected-(J2-Pin_19-Pad19)*%
X134620000Y-59944000D03*
%TO.P,J2,20,Pin_20*%
%TO.N,PA2_LCD_DC*%
X134620000Y-62484000D03*
%TO.P,J2,21,Pin_21*%
%TO.N,PA3_ADC1_IN3*%
X137160000Y-59944000D03*
%TO.P,J2,22,Pin_22*%
%TO.N,PA4_SPI1_LCD_NCS*%
X137160000Y-62484000D03*
%TO.P,J2,23,Pin_23*%
%TO.N,PA5_SPI1_LCD_SCK*%
X139700000Y-59944000D03*
%TO.P,J2,24,Pin_24*%
%TO.N,PA6_SPI1_MISO_LCD*%
X139700000Y-62484000D03*
%TO.P,J2,25,Pin_25*%
%TO.N,unconnected-(J2-Pin_25-Pad25)*%
X142240000Y-59944000D03*
%TO.P,J2,26,Pin_26*%
%TO.N,PC4_LCD_RST*%
X142240000Y-62484000D03*
%TO.P,J2,27,Pin_27*%
%TO.N,unconnected-(J2-Pin_27-Pad27)*%
X144780000Y-59944000D03*
%TO.P,J2,28,Pin_28*%
%TO.N,unconnected-(J2-Pin_28-Pad28)*%
X144780000Y-62484000D03*
%TO.P,J2,29,Pin_29*%
%TO.N,unconnected-(J2-Pin_29-Pad29)*%
X147320000Y-59944000D03*
%TO.P,J2,30,Pin_30*%
%TO.N,PB2_SPI3_MOSI*%
X147320000Y-62484000D03*
%TO.P,J2,31,Pin_31*%
%TO.N,unconnected-(J2-Pin_31-Pad31)*%
X149860000Y-59944000D03*
%TO.P,J2,32,Pin_32*%
%TO.N,unconnected-(J2-Pin_32-Pad32)*%
X149860000Y-62484000D03*
%TO.P,J2,33,Pin_33*%
%TO.N,unconnected-(J2-Pin_33-Pad33)*%
X152400000Y-59944000D03*
%TO.P,J2,34,Pin_34*%
%TO.N,unconnected-(J2-Pin_34-Pad34)*%
X152400000Y-62484000D03*
%TO.P,J2,35,Pin_35*%
%TO.N,unconnected-(J2-Pin_35-Pad35)*%
X154940000Y-59944000D03*
%TO.P,J2,36,Pin_36*%
%TO.N,unconnected-(J2-Pin_36-Pad36)*%
X154940000Y-62484000D03*
%TO.P,J2,37,Pin_37*%
%TO.N,PE13_TIMER1_CH3_PWM*%
X157480000Y-59944000D03*
%TO.P,J2,38,Pin_38*%
%TO.N,unconnected-(J2-Pin_38-Pad38)*%
X157480000Y-62484000D03*
%TO.P,J2,39,Pin_39*%
%TO.N,unconnected-(J2-Pin_39-Pad39)*%
X160020000Y-59944000D03*
%TO.P,J2,40,Pin_40*%
%TO.N,unconnected-(J2-Pin_40-Pad40)*%
X160020000Y-62484000D03*
%TO.P,J2,41,Pin_41*%
%TO.N,unconnected-(J2-Pin_41-Pad41)*%
X162560000Y-59944000D03*
%TO.P,J2,42,Pin_42*%
%TO.N,D_GND*%
X162560000Y-62484000D03*
%TO.P,J2,43,Pin_43*%
X165100000Y-59944000D03*
%TO.P,J2,44,Pin_44*%
X165100000Y-62484000D03*
%TO.P,J2,45,Pin_45*%
X167640000Y-59944000D03*
%TO.P,J2,46,Pin_46*%
X167640000Y-62484000D03*
D14*
%TO.P,J2,51,Pin_51*%
%TO.N,PE1_GLED*%
X111760000Y-108204000D03*
D15*
%TO.P,J2,52,Pin_52*%
%TO.N,unconnected-(J2-Pin_52-Pad52)*%
X111760000Y-110744000D03*
%TO.P,J2,53,Pin_53*%
%TO.N,unconnected-(J2-Pin_53-Pad53)*%
X114300000Y-108204000D03*
%TO.P,J2,54,Pin_54*%
%TO.N,PB8_I2C1_SCL*%
X114300000Y-110744000D03*
%TO.P,J2,55,Pin_55*%
%TO.N,BOOT0*%
X116840000Y-108204000D03*
%TO.P,J2,56,Pin_56*%
%TO.N,PB7_I2C1_SDA*%
X116840000Y-110744000D03*
%TO.P,J2,57,Pin_57*%
%TO.N,unconnected-(J2-Pin_57-Pad57)*%
X119380000Y-108204000D03*
%TO.P,J2,58,Pin_58*%
%TO.N,unconnected-(J2-Pin_58-Pad58)*%
X119380000Y-110744000D03*
%TO.P,J2,59,Pin_59*%
%TO.N,unconnected-(J2-Pin_59-Pad59)*%
X121920000Y-108204000D03*
%TO.P,J2,60,Pin_60*%
%TO.N,unconnected-(J2-Pin_60-Pad60)*%
X121920000Y-110744000D03*
%TO.P,J2,61,Pin_61*%
%TO.N,PD7_SPI1_MOSI_LCD*%
X124460000Y-108204000D03*
%TO.P,J2,62,Pin_12*%
%TO.N,PD6_BLED*%
X124460000Y-110744000D03*
%TO.P,J2,63,Pin_63*%
%TO.N,PD5_WLED*%
X127000000Y-108204000D03*
%TO.P,J2,64,Pin_64*%
%TO.N,PD4_YLED*%
X127000000Y-110744000D03*
%TO.P,J2,65,Pin_65*%
%TO.N,unconnected-(J2-Pin_65-Pad65)*%
X129540000Y-108204000D03*
%TO.P,J2,66,Pin_66*%
%TO.N,PD2_CAN1_STB*%
X129540000Y-110744000D03*
%TO.P,J2,67,Pin_17*%
%TO.N,PD1_CAN1_Tx*%
X132080000Y-108204000D03*
%TO.P,J2,68,Pin_68*%
%TO.N,PD0_CAN1_Rx*%
X132080000Y-110744000D03*
%TO.P,J2,69,Pin_69*%
%TO.N,PC12_SPI3_IRQ*%
X134620000Y-108204000D03*
%TO.P,J2,70,Pin_70*%
%TO.N,PC11_SPI3_MISO*%
X134620000Y-110744000D03*
%TO.P,J2,71,Pin_71*%
%TO.N,PC10_SPI3_SCK*%
X137160000Y-108204000D03*
%TO.P,J2,72,Pin_72*%
%TO.N,PC15_SPI3_NCS*%
X137160000Y-110744000D03*
%TO.P,J2,73,Pin_73*%
%TO.N,PA14_SWCLK*%
X139700000Y-108204000D03*
%TO.P,J2,74,Pin_74*%
%TO.N,PA13_SWDIO*%
X139700000Y-110744000D03*
%TO.P,J2,75,Pin_75*%
%TO.N,unconnected-(J2-Pin_75-Pad75)*%
X142240000Y-108204000D03*
%TO.P,J2,76,Pin_76*%
%TO.N,unconnected-(J2-Pin_76-Pad76)*%
X142240000Y-110744000D03*
%TO.P,J2,77,Pin_77*%
%TO.N,PA10_UART_Rx*%
X144780000Y-108204000D03*
%TO.P,J2,78,Pin_78*%
%TO.N,PA9_UART_Tx*%
X144780000Y-110744000D03*
%TO.P,J2,79,Pin_79*%
%TO.N,unconnected-(J2-Pin_79-Pad79)*%
X147320000Y-108204000D03*
%TO.P,J2,80,Pin_80*%
%TO.N,unconnected-(J2-Pin_80-Pad80)*%
X147320000Y-110744000D03*
%TO.P,J2,81,Pin_81*%
%TO.N,unconnected-(J2-Pin_81-Pad81)*%
X149860000Y-108204000D03*
%TO.P,J2,82,Pin_82*%
%TO.N,unconnected-(J2-Pin_82-Pad82)*%
X149860000Y-110744000D03*
%TO.P,J2,83,Pin_83*%
%TO.N,unconnected-(J2-Pin_83-Pad83)*%
X152400000Y-108204000D03*
%TO.P,J2,84,Pin_84*%
%TO.N,unconnected-(J2-Pin_84-Pad84)*%
X152400000Y-110744000D03*
%TO.P,J2,85,Pin_85*%
%TO.N,unconnected-(J2-Pin_85-Pad85)*%
X154940000Y-108204000D03*
%TO.P,J2,86,Pin_86*%
%TO.N,unconnected-(J2-Pin_86-Pad86)*%
X154940000Y-110744000D03*
%TO.P,J2,87,Pin_87*%
%TO.N,unconnected-(J2-Pin_87-Pad87)*%
X157480000Y-108204000D03*
%TO.P,J2,88,Pin_88*%
%TO.N,unconnected-(J2-Pin_88-Pad88)*%
X157480000Y-110744000D03*
%TO.P,J2,89,Pin_89*%
%TO.N,PD10_ROW1*%
X160020000Y-108204000D03*
%TO.P,J2,90,Pin_90*%
%TO.N,unconnected-(J2-Pin_90-Pad90)*%
X160020000Y-110744000D03*
%TO.P,J2,91,Pin_91*%
%TO.N,PD8_ROW2*%
X162560000Y-108204000D03*
%TO.P,J2,92,Pin_92*%
%TO.N,unconnected-(J2-Pin_92-Pad92)*%
X162560000Y-110744000D03*
%TO.P,J2,93,Pin_93*%
%TO.N,D_GND*%
X165100000Y-108204000D03*
%TO.P,J2,94,Pin_94*%
%TO.N,PB14_COL1*%
X165100000Y-110744000D03*
%TO.P,J2,95,Pin_95*%
%TO.N,unconnected-(J2-Pin_95-Pad95)*%
X167640000Y-108204000D03*
%TO.P,J2,96,Pin_96*%
%TO.N,PB12_COL2*%
X167640000Y-110744000D03*
%TD*%
D18*
%TO.P,J1,1*%
%TO.N,Net-(D1-K)*%
X188264000Y-100838000D03*
D19*
%TO.P,J1,2*%
%TO.N,D_GND*%
X194564000Y-100838000D03*
D20*
%TO.P,J1,3*%
X191164000Y-105638000D03*
%TD*%
D21*
%TO.P,U3,1,NC(A0)*%
%TO.N,unconnected-(U3-NC(A0)-Pad1)*%
X171968000Y-80528000D03*
D22*
%TO.P,U3,2,A1*%
%TO.N,unconnected-(U3-A1-Pad2)*%
X174508000Y-80528000D03*
%TO.P,U3,3,A2*%
%TO.N,unconnected-(U3-A2-Pad3)*%
X177048000Y-80528000D03*
%TO.P,U3,4,GND*%
%TO.N,D_GND*%
X179588000Y-80528000D03*
%TO.P,U3,5,SDA*%
%TO.N,PB7_I2C1_SDA*%
X179588000Y-88148000D03*
%TO.P,U3,6,SCL*%
%TO.N,PB8_I2C1_SCL*%
X177048000Y-88148000D03*
%TO.P,U3,7,WP*%
%TO.N,Net-(U3-WP)*%
X174508000Y-88148000D03*
%TO.P,U3,8,VCC*%
%TO.N,+3.3V*%
X171968000Y-88148000D03*
%TD*%
D23*
%TO.N,+3.3V*%
X131198523Y-105833760D03*
X157540678Y-123173723D03*
X174752000Y-91186000D03*
%TO.N,D_GND*%
X127718735Y-70822735D03*
X136652000Y-76962000D03*
X169012857Y-121768857D03*
X172076750Y-111878750D03*
X176525000Y-111501000D03*
X175759750Y-120895750D03*
X136652000Y-99060000D03*
%TO.N,N_RESET*%
X161290000Y-105918000D03*
X170679750Y-115335750D03*
%TO.N,Net-(D2-A)*%
X106422853Y-79352810D03*
%TO.N,Net-(D3-A)*%
X106430197Y-69194909D03*
%TO.N,PE3_ALIVE_LED*%
X111495243Y-63807787D03*
%TO.N,Net-(D4-A)*%
X106413411Y-101460567D03*
%TO.N,Net-(D5-A)*%
X106434657Y-96380938D03*
%TO.N,PD5_WLED*%
X122936000Y-106172000D03*
%TO.N,Net-(D6-A)*%
X106430197Y-84470580D03*
%TO.N,Net-(D7-A)*%
X106420493Y-91296210D03*
%TO.N,Net-(D8-A)*%
X106416558Y-76092041D03*
%TO.N,PB7_I2C1_SDA*%
X155956000Y-96520000D03*
%TO.N,PB8_I2C1_SCL*%
X155194000Y-95920000D03*
%TO.N,PB14_COL1*%
X184828500Y-118534500D03*
%TO.N,PA6_SPI1_MISO_LCD*%
X129540000Y-74930000D03*
%TO.N,PB12_COL2*%
X189729750Y-118355750D03*
%TO.N,Net-(J3-Pin_3)*%
X127508000Y-104648000D03*
%TD*%
D24*
%TO.N,PC10_SPI3_SCK*%
X137160000Y-105834314D02*
X137160000Y-108204000D01*
X112300000Y-91694000D02*
X123019686Y-91694000D01*
X123019686Y-91694000D02*
X137160000Y-105834314D01*
%TO.N,PC15_SPI3_NCS*%
X135890000Y-105130000D02*
X135890000Y-109474000D01*
X124994000Y-94234000D02*
X135890000Y-105130000D01*
X112300000Y-94234000D02*
X124994000Y-94234000D01*
X135890000Y-109474000D02*
X137160000Y-110744000D01*
%TO.N,PA2_LCD_DC*%
X130694628Y-72644000D02*
X134620000Y-68718628D01*
X111943654Y-72644000D02*
X130694628Y-72644000D01*
X134620000Y-68718628D02*
X134620000Y-62484000D01*
X111150000Y-73437654D02*
X111943654Y-72644000D01*
X111150000Y-77844000D02*
X111150000Y-73437654D01*
X112300000Y-78994000D02*
X111150000Y-77844000D01*
%TO.N,PA4_SPI1_LCD_NCS*%
X129990314Y-73914000D02*
X112300000Y-73914000D01*
X137160000Y-66744314D02*
X129990314Y-73914000D01*
X137160000Y-62484000D02*
X137160000Y-66744314D01*
%TO.N,PB2_SPI3_MOSI*%
X145662628Y-64141372D02*
X147320000Y-62484000D01*
X117627372Y-90424000D02*
X143910000Y-64141372D01*
X143910000Y-64141372D02*
X145662628Y-64141372D01*
X111760000Y-90424000D02*
X117627372Y-90424000D01*
X111150000Y-91034000D02*
X111760000Y-90424000D01*
X111150000Y-95624000D02*
X111150000Y-91034000D01*
X112300000Y-96774000D02*
X111150000Y-95624000D01*
%TO.N,PA5_SPI1_LCD_SCK*%
X123411686Y-84074000D02*
X112300000Y-84074000D01*
X143510000Y-63975686D02*
X123411686Y-84074000D01*
X143510000Y-62127654D02*
X143510000Y-63975686D01*
X142589292Y-61206946D02*
X143510000Y-62127654D01*
X139700000Y-59944000D02*
X140962946Y-61206946D01*
X140962946Y-61206946D02*
X142589292Y-61206946D01*
%TO.N,PC4_LCD_RST*%
X142240000Y-64680000D02*
X130466000Y-76454000D01*
X142240000Y-62484000D02*
X142240000Y-64680000D01*
X130466000Y-76454000D02*
X112300000Y-76454000D01*
%TO.N,+3.3V*%
X157540678Y-123173723D02*
X152647723Y-123173723D01*
X133739750Y-118235750D02*
X145409750Y-118235750D01*
X132589750Y-117085750D02*
X133739750Y-118235750D01*
X112300000Y-63024000D02*
X111760000Y-62484000D01*
X130810000Y-106222283D02*
X130810000Y-115306000D01*
X171968000Y-88148000D02*
X174752000Y-90932000D01*
X130810000Y-115306000D02*
X132589750Y-117085750D01*
X126239750Y-117085750D02*
X132589750Y-117085750D01*
X145409750Y-118235750D02*
X146559750Y-117085750D01*
X126239750Y-117085750D02*
X125089750Y-118235750D01*
X174752000Y-90932000D02*
X174752000Y-91186000D01*
X125089750Y-118235750D02*
X113419750Y-118235750D01*
X131198523Y-105833760D02*
X130810000Y-106222283D01*
X111760000Y-62484000D02*
X111760000Y-59944000D01*
X152647723Y-123173723D02*
X146559750Y-117085750D01*
X112300000Y-68834000D02*
X112300000Y-63024000D01*
X113419750Y-118235750D02*
X112269750Y-117085750D01*
%TO.N,D_GND*%
X114300000Y-59944000D02*
X114300000Y-62484000D01*
X114300000Y-70984000D02*
X113910000Y-71374000D01*
X109365000Y-74309000D02*
X112300000Y-71374000D01*
X113910000Y-71374000D02*
X112300000Y-71374000D01*
X127718735Y-70822735D02*
X114343265Y-70822735D01*
X169147750Y-121903750D02*
X173127750Y-121903750D01*
X172203750Y-112005750D02*
X172076750Y-111878750D01*
X140970000Y-103378000D02*
X140970000Y-116325500D01*
X114343265Y-70822735D02*
X114300000Y-70866000D01*
X136652000Y-76962000D02*
X136652000Y-99060000D01*
X162560000Y-62484000D02*
X167640000Y-62484000D01*
X174751750Y-121903750D02*
X175759750Y-120895750D01*
X165100000Y-59944000D02*
X167640000Y-59944000D01*
X114300000Y-70866000D02*
X114300000Y-70984000D01*
X108471000Y-75084000D02*
X108471000Y-80364000D01*
X153029750Y-115935750D02*
X154179750Y-117085750D01*
X140209750Y-117085750D02*
X141359750Y-115935750D01*
X136652000Y-99060000D02*
X140970000Y-103378000D01*
X114300000Y-62484000D02*
X114300000Y-70866000D01*
X176525000Y-111501000D02*
X176020250Y-112005750D01*
X141359750Y-115935750D02*
X153029750Y-115935750D01*
X173127750Y-121903750D02*
X174751750Y-121903750D01*
X176020250Y-112005750D02*
X172203750Y-112005750D01*
X107696000Y-74309000D02*
X109365000Y-74309000D01*
X140970000Y-116325500D02*
X140209750Y-117085750D01*
X107696000Y-74309000D02*
X108471000Y-75084000D01*
X108471000Y-80364000D02*
X107696000Y-81139000D01*
X169012857Y-121768857D02*
X169147750Y-121903750D01*
%TO.N,N_RESET*%
X172212750Y-114808750D02*
X173122750Y-114808750D01*
X166805404Y-114075750D02*
X171479750Y-114075750D01*
X163068000Y-109474000D02*
X163830000Y-110236000D01*
X171422750Y-115335750D02*
X171949750Y-114808750D01*
X171949750Y-114808750D02*
X173122750Y-114808750D01*
X161290000Y-108560346D02*
X162203654Y-109474000D01*
X163830000Y-110236000D02*
X163830000Y-111100346D01*
X161290000Y-105918000D02*
X161290000Y-108560346D01*
X170679750Y-115335750D02*
X171422750Y-115335750D01*
X162203654Y-109474000D02*
X163068000Y-109474000D01*
X171479750Y-114075750D02*
X172212750Y-114808750D01*
X163830000Y-111100346D02*
X166805404Y-114075750D01*
%TO.N,Net-(D2-A)*%
X106422853Y-79352810D02*
X107659810Y-79352810D01*
X107659810Y-79352810D02*
X107696000Y-79389000D01*
%TO.N,Net-(D3-A)*%
X106430197Y-69194909D02*
X107661909Y-69194909D01*
X107661909Y-69194909D02*
X107696000Y-69229000D01*
%TO.N,PE3_ALIVE_LED*%
X111436030Y-63867000D02*
X111495243Y-63807787D01*
X111495243Y-63807787D02*
X111495243Y-67179757D01*
X111495243Y-67179757D02*
X107696000Y-70979000D01*
%TO.N,PE1_GLED*%
X111760000Y-108204000D02*
X111760000Y-107329000D01*
X109150000Y-101163000D02*
X109150000Y-104719000D01*
X107696000Y-99709000D02*
X109150000Y-101163000D01*
X109150000Y-104719000D02*
X111760000Y-107329000D01*
%TO.N,Net-(D4-A)*%
X107696000Y-101459000D02*
X106414978Y-101459000D01*
X106414978Y-101459000D02*
X106413411Y-101460567D01*
%TO.N,PD6_BLED*%
X107696000Y-94629000D02*
X109550000Y-96483000D01*
X111845343Y-106848657D02*
X120650000Y-106848657D01*
X109550000Y-104553314D02*
X111845343Y-106848657D01*
X120650000Y-106848657D02*
X120650000Y-108800346D01*
X123190966Y-109474966D02*
X124460000Y-110744000D01*
X109550000Y-96483000D02*
X109550000Y-104553314D01*
X120650000Y-108800346D02*
X121324620Y-109474966D01*
X121324620Y-109474966D02*
X123190966Y-109474966D01*
%TO.N,Net-(D5-A)*%
X107696000Y-96379000D02*
X106436595Y-96379000D01*
X106436595Y-96379000D02*
X106434657Y-96380938D01*
%TO.N,PD5_WLED*%
X112157029Y-106028971D02*
X122792971Y-106028971D01*
X107696000Y-86219000D02*
X110350000Y-88873000D01*
X122792971Y-106028971D02*
X122936000Y-106172000D01*
X110350000Y-88873000D02*
X110350000Y-104221942D01*
X110350000Y-104221942D02*
X112157029Y-106028971D01*
%TO.N,Net-(D6-A)*%
X107696000Y-84469000D02*
X106431777Y-84469000D01*
X106431777Y-84469000D02*
X106430197Y-84470580D01*
%TO.N,Net-(D7-A)*%
X107696000Y-91299000D02*
X106423283Y-91299000D01*
X106423283Y-91299000D02*
X106420493Y-91296210D01*
%TO.N,PD4_YLED*%
X123190000Y-108712000D02*
X123984837Y-109506837D01*
X112011029Y-106448657D02*
X121791003Y-106448657D01*
X123984837Y-109506837D02*
X125762837Y-109506837D01*
X109950000Y-104387628D02*
X112011029Y-106448657D01*
X125762837Y-109506837D02*
X127000000Y-110744000D01*
X107696000Y-89549000D02*
X109950000Y-91803000D01*
X123190000Y-107847654D02*
X123190000Y-108712000D01*
X121791003Y-106448657D02*
X123190000Y-107847654D01*
X109950000Y-91803000D02*
X109950000Y-104387628D01*
%TO.N,Net-(D8-A)*%
X106416558Y-76092041D02*
X107662959Y-76092041D01*
X107662959Y-76092041D02*
X107696000Y-76059000D01*
%TO.N,PC11_SPI3_MISO*%
X133350000Y-109474000D02*
X133350000Y-105918000D01*
X133350000Y-105918000D02*
X130810000Y-103378000D01*
X112197654Y-103378000D02*
X111150000Y-102330346D01*
X111150000Y-100464000D02*
X112300000Y-99314000D01*
X130810000Y-103378000D02*
X112197654Y-103378000D01*
X111150000Y-102330346D02*
X111150000Y-100464000D01*
X134620000Y-110744000D02*
X133350000Y-109474000D01*
%TO.N,PB7_I2C1_SDA*%
X173285686Y-96520000D02*
X179588000Y-90217686D01*
X155956000Y-96520000D02*
X173285686Y-96520000D01*
X179588000Y-90217686D02*
X179588000Y-88148000D01*
%TO.N,PB8_I2C1_SCL*%
X173066000Y-95920000D02*
X177048000Y-91938000D01*
X177048000Y-91938000D02*
X177048000Y-88148000D01*
X155194000Y-95920000D02*
X173066000Y-95920000D01*
%TO.N,PB14_COL1*%
X179661750Y-114807750D02*
X185827750Y-120973750D01*
X165100000Y-110744000D02*
X168031750Y-113675750D01*
X184828500Y-121820500D02*
X184911750Y-121903750D01*
X168031750Y-113675750D02*
X178529750Y-113675750D01*
X184911750Y-121903750D02*
X185827750Y-121903750D01*
X184828500Y-118534500D02*
X184828500Y-121820500D01*
X185827750Y-120973750D02*
X185827750Y-121903750D01*
X178529750Y-113675750D02*
X179661750Y-114807750D01*
%TO.N,PA6_SPI1_MISO_LCD*%
X139700000Y-62484000D02*
X139700000Y-64770000D01*
X139700000Y-64770000D02*
X129540000Y-74930000D01*
%TO.N,PD7_SPI1_MOSI_LCD*%
X112300000Y-81534000D02*
X110750000Y-83084000D01*
X112014000Y-103886000D02*
X122428000Y-103886000D01*
X110750000Y-83084000D02*
X110750000Y-102622000D01*
X124460000Y-108204000D02*
X124460000Y-105918000D01*
X110750000Y-102622000D02*
X112014000Y-103886000D01*
X122428000Y-103886000D02*
X124460000Y-105918000D01*
%TO.N,PC12_SPI3_IRQ*%
X134620000Y-108204000D02*
X134620000Y-105918000D01*
X134620000Y-105918000D02*
X130556000Y-101854000D01*
X130556000Y-101854000D02*
X112300000Y-101854000D01*
%TO.N,PB12_COL2*%
X167640000Y-110744000D02*
X169771750Y-112875750D01*
X192177750Y-121341750D02*
X192177750Y-121903750D01*
X198711750Y-114807750D02*
X192177750Y-121341750D01*
X192177750Y-121903750D02*
X189729750Y-119455750D01*
X169771750Y-112875750D02*
X196779750Y-112875750D01*
X189729750Y-119455750D02*
X189729750Y-118355750D01*
X196779750Y-112875750D02*
X198711750Y-114807750D01*
%TO.N,PD10_ROW1*%
X161290000Y-111100346D02*
X166125404Y-115935750D01*
X173699750Y-115935750D02*
X179666750Y-121902750D01*
X160020000Y-108204000D02*
X161290000Y-109474000D01*
X161290000Y-109474000D02*
X161290000Y-111100346D01*
X166125404Y-115935750D02*
X173699750Y-115935750D01*
X179666750Y-121902750D02*
X180532750Y-122768750D01*
X197850750Y-122768750D02*
X198716750Y-121902750D01*
X180532750Y-122768750D02*
X197850750Y-122768750D01*
%TO.N,BOOT0*%
X116840000Y-108204000D02*
X115570000Y-109474000D01*
X115570000Y-109474000D02*
X115570000Y-111245500D01*
X115570000Y-111245500D02*
X109729750Y-117085750D01*
%TO.N,PD8_ROW2*%
X166370000Y-111100346D02*
X168545404Y-113275750D01*
X185822750Y-114808750D02*
X192172750Y-114808750D01*
X165717975Y-109495629D02*
X166370000Y-110147654D01*
X168545404Y-113275750D02*
X184289750Y-113275750D01*
X184289750Y-113275750D02*
X185822750Y-114808750D01*
X163851629Y-109495629D02*
X165717975Y-109495629D01*
X166370000Y-110147654D02*
X166370000Y-111100346D01*
X162560000Y-108204000D02*
X163851629Y-109495629D01*
%TO.N,Net-(J3-Pin_3)*%
X128270000Y-105410000D02*
X128270000Y-112515500D01*
X128270000Y-112515500D02*
X123699750Y-117085750D01*
X127508000Y-104648000D02*
X128270000Y-105410000D01*
%TD*%
M02*
