%TF.GenerationSoftware,KiCad,Pcbnew,8.0.3*%
%TF.CreationDate,2024-06-28T15:17:55+09:00*%
%TF.ProjectId,KICAD-2,4b494341-442d-4322-9e6b-696361645f70,rev?*%
%TF.SameCoordinates,Original*%
%TF.FileFunction,Legend,Bot*%
%TF.FilePolarity,Positive*%
%FSLAX46Y46*%
G04 Gerber Fmt 4.6, Leading zero omitted, Abs format (unit mm)*
G04 Created by KiCad (PCBNEW 8.0.3) date 2024-06-28 15:17:55*
%MOMM*%
%LPD*%
G01*
G04 APERTURE LIST*
%ADD10C,0.150000*%
%ADD11C,0.120000*%
G04 APERTURE END LIST*
D10*
X159916416Y-124648997D02*
X160183082Y-124648997D01*
X160183082Y-125068045D02*
X160183082Y-124268045D01*
X160183082Y-124268045D02*
X159802130Y-124268045D01*
X159230702Y-124648997D02*
X159116416Y-124687092D01*
X159116416Y-124687092D02*
X159078321Y-124725188D01*
X159078321Y-124725188D02*
X159040225Y-124801378D01*
X159040225Y-124801378D02*
X159040225Y-124915664D01*
X159040225Y-124915664D02*
X159078321Y-124991854D01*
X159078321Y-124991854D02*
X159116416Y-125029950D01*
X159116416Y-125029950D02*
X159192606Y-125068045D01*
X159192606Y-125068045D02*
X159497368Y-125068045D01*
X159497368Y-125068045D02*
X159497368Y-124268045D01*
X159497368Y-124268045D02*
X159230702Y-124268045D01*
X159230702Y-124268045D02*
X159154511Y-124306140D01*
X159154511Y-124306140D02*
X159116416Y-124344235D01*
X159116416Y-124344235D02*
X159078321Y-124420426D01*
X159078321Y-124420426D02*
X159078321Y-124496616D01*
X159078321Y-124496616D02*
X159116416Y-124572807D01*
X159116416Y-124572807D02*
X159154511Y-124610902D01*
X159154511Y-124610902D02*
X159230702Y-124648997D01*
X159230702Y-124648997D02*
X159497368Y-124648997D01*
X158278321Y-125068045D02*
X158735464Y-125068045D01*
X158506892Y-125068045D02*
X158506892Y-124268045D01*
X158506892Y-124268045D02*
X158583083Y-124382330D01*
X158583083Y-124382330D02*
X158659273Y-124458521D01*
X158659273Y-124458521D02*
X158735464Y-124496616D01*
X164909249Y-125206963D02*
X164947345Y-125245059D01*
X164947345Y-125245059D02*
X165061630Y-125283154D01*
X165061630Y-125283154D02*
X165137821Y-125283154D01*
X165137821Y-125283154D02*
X165252107Y-125245059D01*
X165252107Y-125245059D02*
X165328297Y-125168868D01*
X165328297Y-125168868D02*
X165366392Y-125092678D01*
X165366392Y-125092678D02*
X165404488Y-124940297D01*
X165404488Y-124940297D02*
X165404488Y-124826011D01*
X165404488Y-124826011D02*
X165366392Y-124673630D01*
X165366392Y-124673630D02*
X165328297Y-124597439D01*
X165328297Y-124597439D02*
X165252107Y-124521249D01*
X165252107Y-124521249D02*
X165137821Y-124483154D01*
X165137821Y-124483154D02*
X165061630Y-124483154D01*
X165061630Y-124483154D02*
X164947345Y-124521249D01*
X164947345Y-124521249D02*
X164909249Y-124559344D01*
X164147345Y-125283154D02*
X164604488Y-125283154D01*
X164375916Y-125283154D02*
X164375916Y-124483154D01*
X164375916Y-124483154D02*
X164452107Y-124597439D01*
X164452107Y-124597439D02*
X164528297Y-124673630D01*
X164528297Y-124673630D02*
X164604488Y-124711725D01*
X163652106Y-124483154D02*
X163575916Y-124483154D01*
X163575916Y-124483154D02*
X163499725Y-124521249D01*
X163499725Y-124521249D02*
X163461630Y-124559344D01*
X163461630Y-124559344D02*
X163423535Y-124635535D01*
X163423535Y-124635535D02*
X163385440Y-124787916D01*
X163385440Y-124787916D02*
X163385440Y-124978392D01*
X163385440Y-124978392D02*
X163423535Y-125130773D01*
X163423535Y-125130773D02*
X163461630Y-125206963D01*
X163461630Y-125206963D02*
X163499725Y-125245059D01*
X163499725Y-125245059D02*
X163575916Y-125283154D01*
X163575916Y-125283154D02*
X163652106Y-125283154D01*
X163652106Y-125283154D02*
X163728297Y-125245059D01*
X163728297Y-125245059D02*
X163766392Y-125206963D01*
X163766392Y-125206963D02*
X163804487Y-125130773D01*
X163804487Y-125130773D02*
X163842583Y-124978392D01*
X163842583Y-124978392D02*
X163842583Y-124787916D01*
X163842583Y-124787916D02*
X163804487Y-124635535D01*
X163804487Y-124635535D02*
X163766392Y-124559344D01*
X163766392Y-124559344D02*
X163728297Y-124521249D01*
X163728297Y-124521249D02*
X163652106Y-124483154D01*
X106026416Y-120080569D02*
X106359749Y-119604378D01*
X106597844Y-120080569D02*
X106597844Y-119080569D01*
X106597844Y-119080569D02*
X106216892Y-119080569D01*
X106216892Y-119080569D02*
X106121654Y-119128188D01*
X106121654Y-119128188D02*
X106074035Y-119175807D01*
X106074035Y-119175807D02*
X106026416Y-119271045D01*
X106026416Y-119271045D02*
X106026416Y-119413902D01*
X106026416Y-119413902D02*
X106074035Y-119509140D01*
X106074035Y-119509140D02*
X106121654Y-119556759D01*
X106121654Y-119556759D02*
X106216892Y-119604378D01*
X106216892Y-119604378D02*
X106597844Y-119604378D01*
X105693082Y-119080569D02*
X105026416Y-119080569D01*
X105026416Y-119080569D02*
X105454987Y-120080569D01*
X167546416Y-124902997D02*
X167813082Y-124902997D01*
X167813082Y-125322045D02*
X167813082Y-124522045D01*
X167813082Y-124522045D02*
X167432130Y-124522045D01*
X166860702Y-124902997D02*
X166746416Y-124941092D01*
X166746416Y-124941092D02*
X166708321Y-124979188D01*
X166708321Y-124979188D02*
X166670225Y-125055378D01*
X166670225Y-125055378D02*
X166670225Y-125169664D01*
X166670225Y-125169664D02*
X166708321Y-125245854D01*
X166708321Y-125245854D02*
X166746416Y-125283950D01*
X166746416Y-125283950D02*
X166822606Y-125322045D01*
X166822606Y-125322045D02*
X167127368Y-125322045D01*
X167127368Y-125322045D02*
X167127368Y-124522045D01*
X167127368Y-124522045D02*
X166860702Y-124522045D01*
X166860702Y-124522045D02*
X166784511Y-124560140D01*
X166784511Y-124560140D02*
X166746416Y-124598235D01*
X166746416Y-124598235D02*
X166708321Y-124674426D01*
X166708321Y-124674426D02*
X166708321Y-124750616D01*
X166708321Y-124750616D02*
X166746416Y-124826807D01*
X166746416Y-124826807D02*
X166784511Y-124864902D01*
X166784511Y-124864902D02*
X166860702Y-124902997D01*
X166860702Y-124902997D02*
X167127368Y-124902997D01*
X166365464Y-124598235D02*
X166327368Y-124560140D01*
X166327368Y-124560140D02*
X166251178Y-124522045D01*
X166251178Y-124522045D02*
X166060702Y-124522045D01*
X166060702Y-124522045D02*
X165984511Y-124560140D01*
X165984511Y-124560140D02*
X165946416Y-124598235D01*
X165946416Y-124598235D02*
X165908321Y-124674426D01*
X165908321Y-124674426D02*
X165908321Y-124750616D01*
X165908321Y-124750616D02*
X165946416Y-124864902D01*
X165946416Y-124864902D02*
X166403559Y-125322045D01*
X166403559Y-125322045D02*
X165908321Y-125322045D01*
X105522563Y-67974962D02*
X105789230Y-67594009D01*
X105979706Y-67974962D02*
X105979706Y-67174962D01*
X105979706Y-67174962D02*
X105674944Y-67174962D01*
X105674944Y-67174962D02*
X105598754Y-67213057D01*
X105598754Y-67213057D02*
X105560659Y-67251152D01*
X105560659Y-67251152D02*
X105522563Y-67327343D01*
X105522563Y-67327343D02*
X105522563Y-67441628D01*
X105522563Y-67441628D02*
X105560659Y-67517819D01*
X105560659Y-67517819D02*
X105598754Y-67555914D01*
X105598754Y-67555914D02*
X105674944Y-67594009D01*
X105674944Y-67594009D02*
X105979706Y-67594009D01*
X105065421Y-67517819D02*
X105141611Y-67479724D01*
X105141611Y-67479724D02*
X105179706Y-67441628D01*
X105179706Y-67441628D02*
X105217802Y-67365438D01*
X105217802Y-67365438D02*
X105217802Y-67327343D01*
X105217802Y-67327343D02*
X105179706Y-67251152D01*
X105179706Y-67251152D02*
X105141611Y-67213057D01*
X105141611Y-67213057D02*
X105065421Y-67174962D01*
X105065421Y-67174962D02*
X104913040Y-67174962D01*
X104913040Y-67174962D02*
X104836849Y-67213057D01*
X104836849Y-67213057D02*
X104798754Y-67251152D01*
X104798754Y-67251152D02*
X104760659Y-67327343D01*
X104760659Y-67327343D02*
X104760659Y-67365438D01*
X104760659Y-67365438D02*
X104798754Y-67441628D01*
X104798754Y-67441628D02*
X104836849Y-67479724D01*
X104836849Y-67479724D02*
X104913040Y-67517819D01*
X104913040Y-67517819D02*
X105065421Y-67517819D01*
X105065421Y-67517819D02*
X105141611Y-67555914D01*
X105141611Y-67555914D02*
X105179706Y-67594009D01*
X105179706Y-67594009D02*
X105217802Y-67670200D01*
X105217802Y-67670200D02*
X105217802Y-67822581D01*
X105217802Y-67822581D02*
X105179706Y-67898771D01*
X105179706Y-67898771D02*
X105141611Y-67936867D01*
X105141611Y-67936867D02*
X105065421Y-67974962D01*
X105065421Y-67974962D02*
X104913040Y-67974962D01*
X104913040Y-67974962D02*
X104836849Y-67936867D01*
X104836849Y-67936867D02*
X104798754Y-67898771D01*
X104798754Y-67898771D02*
X104760659Y-67822581D01*
X104760659Y-67822581D02*
X104760659Y-67670200D01*
X104760659Y-67670200D02*
X104798754Y-67594009D01*
X104798754Y-67594009D02*
X104836849Y-67555914D01*
X104836849Y-67555914D02*
X104913040Y-67517819D01*
X133220904Y-100819819D02*
X133220904Y-101629342D01*
X133220904Y-101629342D02*
X133173285Y-101724580D01*
X133173285Y-101724580D02*
X133125666Y-101772200D01*
X133125666Y-101772200D02*
X133030428Y-101819819D01*
X133030428Y-101819819D02*
X132839952Y-101819819D01*
X132839952Y-101819819D02*
X132744714Y-101772200D01*
X132744714Y-101772200D02*
X132697095Y-101724580D01*
X132697095Y-101724580D02*
X132649476Y-101629342D01*
X132649476Y-101629342D02*
X132649476Y-100819819D01*
X132220904Y-100915057D02*
X132173285Y-100867438D01*
X132173285Y-100867438D02*
X132078047Y-100819819D01*
X132078047Y-100819819D02*
X131839952Y-100819819D01*
X131839952Y-100819819D02*
X131744714Y-100867438D01*
X131744714Y-100867438D02*
X131697095Y-100915057D01*
X131697095Y-100915057D02*
X131649476Y-101010295D01*
X131649476Y-101010295D02*
X131649476Y-101105533D01*
X131649476Y-101105533D02*
X131697095Y-101248390D01*
X131697095Y-101248390D02*
X132268523Y-101819819D01*
X132268523Y-101819819D02*
X131649476Y-101819819D01*
X181639904Y-95122819D02*
X181639904Y-95932342D01*
X181639904Y-95932342D02*
X181592285Y-96027580D01*
X181592285Y-96027580D02*
X181544666Y-96075200D01*
X181544666Y-96075200D02*
X181449428Y-96122819D01*
X181449428Y-96122819D02*
X181258952Y-96122819D01*
X181258952Y-96122819D02*
X181163714Y-96075200D01*
X181163714Y-96075200D02*
X181116095Y-96027580D01*
X181116095Y-96027580D02*
X181068476Y-95932342D01*
X181068476Y-95932342D02*
X181068476Y-95122819D01*
X180068476Y-96122819D02*
X180639904Y-96122819D01*
X180354190Y-96122819D02*
X180354190Y-95122819D01*
X180354190Y-95122819D02*
X180449428Y-95265676D01*
X180449428Y-95265676D02*
X180544666Y-95360914D01*
X180544666Y-95360914D02*
X180639904Y-95408533D01*
X112133333Y-55888819D02*
X112133333Y-56603104D01*
X112133333Y-56603104D02*
X112180952Y-56745961D01*
X112180952Y-56745961D02*
X112276190Y-56841200D01*
X112276190Y-56841200D02*
X112419047Y-56888819D01*
X112419047Y-56888819D02*
X112514285Y-56888819D01*
X111704761Y-55984057D02*
X111657142Y-55936438D01*
X111657142Y-55936438D02*
X111561904Y-55888819D01*
X111561904Y-55888819D02*
X111323809Y-55888819D01*
X111323809Y-55888819D02*
X111228571Y-55936438D01*
X111228571Y-55936438D02*
X111180952Y-55984057D01*
X111180952Y-55984057D02*
X111133333Y-56079295D01*
X111133333Y-56079295D02*
X111133333Y-56174533D01*
X111133333Y-56174533D02*
X111180952Y-56317390D01*
X111180952Y-56317390D02*
X111752380Y-56888819D01*
X111752380Y-56888819D02*
X111133333Y-56888819D01*
X162327936Y-125283154D02*
X162594603Y-124902201D01*
X162785079Y-125283154D02*
X162785079Y-124483154D01*
X162785079Y-124483154D02*
X162480317Y-124483154D01*
X162480317Y-124483154D02*
X162404127Y-124521249D01*
X162404127Y-124521249D02*
X162366032Y-124559344D01*
X162366032Y-124559344D02*
X162327936Y-124635535D01*
X162327936Y-124635535D02*
X162327936Y-124749820D01*
X162327936Y-124749820D02*
X162366032Y-124826011D01*
X162366032Y-124826011D02*
X162404127Y-124864106D01*
X162404127Y-124864106D02*
X162480317Y-124902201D01*
X162480317Y-124902201D02*
X162785079Y-124902201D01*
X161566032Y-125283154D02*
X162023175Y-125283154D01*
X161794603Y-125283154D02*
X161794603Y-124483154D01*
X161794603Y-124483154D02*
X161870794Y-124597439D01*
X161870794Y-124597439D02*
X161946984Y-124673630D01*
X161946984Y-124673630D02*
X162023175Y-124711725D01*
X161185079Y-125283154D02*
X161032698Y-125283154D01*
X161032698Y-125283154D02*
X160956508Y-125245059D01*
X160956508Y-125245059D02*
X160918412Y-125206963D01*
X160918412Y-125206963D02*
X160842222Y-125092678D01*
X160842222Y-125092678D02*
X160804127Y-124940297D01*
X160804127Y-124940297D02*
X160804127Y-124635535D01*
X160804127Y-124635535D02*
X160842222Y-124559344D01*
X160842222Y-124559344D02*
X160880317Y-124521249D01*
X160880317Y-124521249D02*
X160956508Y-124483154D01*
X160956508Y-124483154D02*
X161108889Y-124483154D01*
X161108889Y-124483154D02*
X161185079Y-124521249D01*
X161185079Y-124521249D02*
X161223174Y-124559344D01*
X161223174Y-124559344D02*
X161261270Y-124635535D01*
X161261270Y-124635535D02*
X161261270Y-124826011D01*
X161261270Y-124826011D02*
X161223174Y-124902201D01*
X161223174Y-124902201D02*
X161185079Y-124940297D01*
X161185079Y-124940297D02*
X161108889Y-124978392D01*
X161108889Y-124978392D02*
X160956508Y-124978392D01*
X160956508Y-124978392D02*
X160880317Y-124940297D01*
X160880317Y-124940297D02*
X160842222Y-124902201D01*
X160842222Y-124902201D02*
X160804127Y-124826011D01*
X194739226Y-117969432D02*
X195005893Y-117588479D01*
X195196369Y-117969432D02*
X195196369Y-117169432D01*
X195196369Y-117169432D02*
X194891607Y-117169432D01*
X194891607Y-117169432D02*
X194815417Y-117207527D01*
X194815417Y-117207527D02*
X194777322Y-117245622D01*
X194777322Y-117245622D02*
X194739226Y-117321813D01*
X194739226Y-117321813D02*
X194739226Y-117436098D01*
X194739226Y-117436098D02*
X194777322Y-117512289D01*
X194777322Y-117512289D02*
X194815417Y-117550384D01*
X194815417Y-117550384D02*
X194891607Y-117588479D01*
X194891607Y-117588479D02*
X195196369Y-117588479D01*
X194434465Y-117245622D02*
X194396369Y-117207527D01*
X194396369Y-117207527D02*
X194320179Y-117169432D01*
X194320179Y-117169432D02*
X194129703Y-117169432D01*
X194129703Y-117169432D02*
X194053512Y-117207527D01*
X194053512Y-117207527D02*
X194015417Y-117245622D01*
X194015417Y-117245622D02*
X193977322Y-117321813D01*
X193977322Y-117321813D02*
X193977322Y-117398003D01*
X193977322Y-117398003D02*
X194015417Y-117512289D01*
X194015417Y-117512289D02*
X194472560Y-117969432D01*
X194472560Y-117969432D02*
X193977322Y-117969432D01*
X105688388Y-73270090D02*
X105955055Y-72889137D01*
X106145531Y-73270090D02*
X106145531Y-72470090D01*
X106145531Y-72470090D02*
X105840769Y-72470090D01*
X105840769Y-72470090D02*
X105764579Y-72508185D01*
X105764579Y-72508185D02*
X105726484Y-72546280D01*
X105726484Y-72546280D02*
X105688388Y-72622471D01*
X105688388Y-72622471D02*
X105688388Y-72736756D01*
X105688388Y-72736756D02*
X105726484Y-72812947D01*
X105726484Y-72812947D02*
X105764579Y-72851042D01*
X105764579Y-72851042D02*
X105840769Y-72889137D01*
X105840769Y-72889137D02*
X106145531Y-72889137D01*
X104926484Y-73270090D02*
X105383627Y-73270090D01*
X105155055Y-73270090D02*
X105155055Y-72470090D01*
X105155055Y-72470090D02*
X105231246Y-72584375D01*
X105231246Y-72584375D02*
X105307436Y-72660566D01*
X105307436Y-72660566D02*
X105383627Y-72698661D01*
X104659817Y-72470090D02*
X104164579Y-72470090D01*
X104164579Y-72470090D02*
X104431245Y-72774852D01*
X104431245Y-72774852D02*
X104316960Y-72774852D01*
X104316960Y-72774852D02*
X104240769Y-72812947D01*
X104240769Y-72812947D02*
X104202674Y-72851042D01*
X104202674Y-72851042D02*
X104164579Y-72927233D01*
X104164579Y-72927233D02*
X104164579Y-73117709D01*
X104164579Y-73117709D02*
X104202674Y-73193899D01*
X104202674Y-73193899D02*
X104240769Y-73231995D01*
X104240769Y-73231995D02*
X104316960Y-73270090D01*
X104316960Y-73270090D02*
X104545531Y-73270090D01*
X104545531Y-73270090D02*
X104621722Y-73231995D01*
X104621722Y-73231995D02*
X104659817Y-73193899D01*
X163254177Y-106133717D02*
X163520844Y-105752764D01*
X163711320Y-106133717D02*
X163711320Y-105333717D01*
X163711320Y-105333717D02*
X163406558Y-105333717D01*
X163406558Y-105333717D02*
X163330368Y-105371812D01*
X163330368Y-105371812D02*
X163292273Y-105409907D01*
X163292273Y-105409907D02*
X163254177Y-105486098D01*
X163254177Y-105486098D02*
X163254177Y-105600383D01*
X163254177Y-105600383D02*
X163292273Y-105676574D01*
X163292273Y-105676574D02*
X163330368Y-105714669D01*
X163330368Y-105714669D02*
X163406558Y-105752764D01*
X163406558Y-105752764D02*
X163711320Y-105752764D01*
X162492273Y-106133717D02*
X162949416Y-106133717D01*
X162720844Y-106133717D02*
X162720844Y-105333717D01*
X162720844Y-105333717D02*
X162797035Y-105448002D01*
X162797035Y-105448002D02*
X162873225Y-105524193D01*
X162873225Y-105524193D02*
X162949416Y-105562288D01*
X161806558Y-105600383D02*
X161806558Y-106133717D01*
X161997034Y-105295622D02*
X162187511Y-105867050D01*
X162187511Y-105867050D02*
X161692272Y-105867050D01*
X195446281Y-94799317D02*
X195446281Y-95513602D01*
X195446281Y-95513602D02*
X195493900Y-95656459D01*
X195493900Y-95656459D02*
X195589138Y-95751698D01*
X195589138Y-95751698D02*
X195731995Y-95799317D01*
X195731995Y-95799317D02*
X195827233Y-95799317D01*
X194446281Y-95799317D02*
X195017709Y-95799317D01*
X194731995Y-95799317D02*
X194731995Y-94799317D01*
X194731995Y-94799317D02*
X194827233Y-94942174D01*
X194827233Y-94942174D02*
X194922471Y-95037412D01*
X194922471Y-95037412D02*
X195017709Y-95085031D01*
X176597792Y-77668916D02*
X176597792Y-78478439D01*
X176597792Y-78478439D02*
X176550173Y-78573677D01*
X176550173Y-78573677D02*
X176502554Y-78621297D01*
X176502554Y-78621297D02*
X176407316Y-78668916D01*
X176407316Y-78668916D02*
X176216840Y-78668916D01*
X176216840Y-78668916D02*
X176121602Y-78621297D01*
X176121602Y-78621297D02*
X176073983Y-78573677D01*
X176073983Y-78573677D02*
X176026364Y-78478439D01*
X176026364Y-78478439D02*
X176026364Y-77668916D01*
X175645411Y-77668916D02*
X175026364Y-77668916D01*
X175026364Y-77668916D02*
X175359697Y-78049868D01*
X175359697Y-78049868D02*
X175216840Y-78049868D01*
X175216840Y-78049868D02*
X175121602Y-78097487D01*
X175121602Y-78097487D02*
X175073983Y-78145106D01*
X175073983Y-78145106D02*
X175026364Y-78240344D01*
X175026364Y-78240344D02*
X175026364Y-78478439D01*
X175026364Y-78478439D02*
X175073983Y-78573677D01*
X175073983Y-78573677D02*
X175121602Y-78621297D01*
X175121602Y-78621297D02*
X175216840Y-78668916D01*
X175216840Y-78668916D02*
X175502554Y-78668916D01*
X175502554Y-78668916D02*
X175597792Y-78621297D01*
X175597792Y-78621297D02*
X175645411Y-78573677D01*
X168973061Y-118963708D02*
X169306394Y-118487517D01*
X169544489Y-118963708D02*
X169544489Y-117963708D01*
X169544489Y-117963708D02*
X169163537Y-117963708D01*
X169163537Y-117963708D02*
X169068299Y-118011327D01*
X169068299Y-118011327D02*
X169020680Y-118058946D01*
X169020680Y-118058946D02*
X168973061Y-118154184D01*
X168973061Y-118154184D02*
X168973061Y-118297041D01*
X168973061Y-118297041D02*
X169020680Y-118392279D01*
X169020680Y-118392279D02*
X169068299Y-118439898D01*
X169068299Y-118439898D02*
X169163537Y-118487517D01*
X169163537Y-118487517D02*
X169544489Y-118487517D01*
X168115918Y-118297041D02*
X168115918Y-118963708D01*
X168354013Y-117916089D02*
X168592108Y-118630374D01*
X168592108Y-118630374D02*
X167973061Y-118630374D01*
X166225573Y-106059358D02*
X166492240Y-105678405D01*
X166682716Y-106059358D02*
X166682716Y-105259358D01*
X166682716Y-105259358D02*
X166377954Y-105259358D01*
X166377954Y-105259358D02*
X166301764Y-105297453D01*
X166301764Y-105297453D02*
X166263669Y-105335548D01*
X166263669Y-105335548D02*
X166225573Y-105411739D01*
X166225573Y-105411739D02*
X166225573Y-105526024D01*
X166225573Y-105526024D02*
X166263669Y-105602215D01*
X166263669Y-105602215D02*
X166301764Y-105640310D01*
X166301764Y-105640310D02*
X166377954Y-105678405D01*
X166377954Y-105678405D02*
X166682716Y-105678405D01*
X165463669Y-106059358D02*
X165920812Y-106059358D01*
X165692240Y-106059358D02*
X165692240Y-105259358D01*
X165692240Y-105259358D02*
X165768431Y-105373643D01*
X165768431Y-105373643D02*
X165844621Y-105449834D01*
X165844621Y-105449834D02*
X165920812Y-105487929D01*
X164739859Y-105259358D02*
X165120811Y-105259358D01*
X165120811Y-105259358D02*
X165158907Y-105640310D01*
X165158907Y-105640310D02*
X165120811Y-105602215D01*
X165120811Y-105602215D02*
X165044621Y-105564120D01*
X165044621Y-105564120D02*
X164854145Y-105564120D01*
X164854145Y-105564120D02*
X164777954Y-105602215D01*
X164777954Y-105602215D02*
X164739859Y-105640310D01*
X164739859Y-105640310D02*
X164701764Y-105716501D01*
X164701764Y-105716501D02*
X164701764Y-105906977D01*
X164701764Y-105906977D02*
X164739859Y-105983167D01*
X164739859Y-105983167D02*
X164777954Y-106021263D01*
X164777954Y-106021263D02*
X164854145Y-106059358D01*
X164854145Y-106059358D02*
X165044621Y-106059358D01*
X165044621Y-106059358D02*
X165120811Y-106021263D01*
X165120811Y-106021263D02*
X165158907Y-105983167D01*
X188429348Y-118519156D02*
X188696015Y-118138203D01*
X188886491Y-118519156D02*
X188886491Y-117719156D01*
X188886491Y-117719156D02*
X188581729Y-117719156D01*
X188581729Y-117719156D02*
X188505539Y-117757251D01*
X188505539Y-117757251D02*
X188467444Y-117795346D01*
X188467444Y-117795346D02*
X188429348Y-117871537D01*
X188429348Y-117871537D02*
X188429348Y-117985822D01*
X188429348Y-117985822D02*
X188467444Y-118062013D01*
X188467444Y-118062013D02*
X188505539Y-118100108D01*
X188505539Y-118100108D02*
X188581729Y-118138203D01*
X188581729Y-118138203D02*
X188886491Y-118138203D01*
X187667444Y-118519156D02*
X188124587Y-118519156D01*
X187896015Y-118519156D02*
X187896015Y-117719156D01*
X187896015Y-117719156D02*
X187972206Y-117833441D01*
X187972206Y-117833441D02*
X188048396Y-117909632D01*
X188048396Y-117909632D02*
X188124587Y-117947727D01*
X176358486Y-120278631D02*
X176406105Y-120326251D01*
X176406105Y-120326251D02*
X176548962Y-120373870D01*
X176548962Y-120373870D02*
X176644200Y-120373870D01*
X176644200Y-120373870D02*
X176787057Y-120326251D01*
X176787057Y-120326251D02*
X176882295Y-120231012D01*
X176882295Y-120231012D02*
X176929914Y-120135774D01*
X176929914Y-120135774D02*
X176977533Y-119945298D01*
X176977533Y-119945298D02*
X176977533Y-119802441D01*
X176977533Y-119802441D02*
X176929914Y-119611965D01*
X176929914Y-119611965D02*
X176882295Y-119516727D01*
X176882295Y-119516727D02*
X176787057Y-119421489D01*
X176787057Y-119421489D02*
X176644200Y-119373870D01*
X176644200Y-119373870D02*
X176548962Y-119373870D01*
X176548962Y-119373870D02*
X176406105Y-119421489D01*
X176406105Y-119421489D02*
X176358486Y-119469108D01*
X175453724Y-119373870D02*
X175929914Y-119373870D01*
X175929914Y-119373870D02*
X175977533Y-119850060D01*
X175977533Y-119850060D02*
X175929914Y-119802441D01*
X175929914Y-119802441D02*
X175834676Y-119754822D01*
X175834676Y-119754822D02*
X175596581Y-119754822D01*
X175596581Y-119754822D02*
X175501343Y-119802441D01*
X175501343Y-119802441D02*
X175453724Y-119850060D01*
X175453724Y-119850060D02*
X175406105Y-119945298D01*
X175406105Y-119945298D02*
X175406105Y-120183393D01*
X175406105Y-120183393D02*
X175453724Y-120278631D01*
X175453724Y-120278631D02*
X175501343Y-120326251D01*
X175501343Y-120326251D02*
X175596581Y-120373870D01*
X175596581Y-120373870D02*
X175834676Y-120373870D01*
X175834676Y-120373870D02*
X175929914Y-120326251D01*
X175929914Y-120326251D02*
X175977533Y-120278631D01*
D11*
%TO.C,FB1*%
X158524750Y-121938686D02*
X158524750Y-122392814D01*
X159994750Y-121938686D02*
X159994750Y-122392814D01*
%TO.C,C10*%
X163829750Y-122312017D02*
X163829750Y-122019483D01*
X164849750Y-122312017D02*
X164849750Y-122019483D01*
%TO.C,C4*%
X171478000Y-107682000D02*
X175863000Y-107682000D01*
X175863000Y-104662000D02*
X171478000Y-104662000D01*
X175863000Y-107682000D02*
X175863000Y-104662000D01*
%TO.C,R9*%
X104633500Y-100838724D02*
X104633500Y-100329276D01*
X105678500Y-100838724D02*
X105678500Y-100329276D01*
%TO.C,R12*%
X104633500Y-90678724D02*
X104633500Y-90169276D01*
X105678500Y-90678724D02*
X105678500Y-90169276D01*
%TO.C,R7*%
X105397250Y-117340474D02*
X105397250Y-116831026D01*
X106442250Y-117340474D02*
X106442250Y-116831026D01*
%TO.C,FB2*%
X166144750Y-121938686D02*
X166144750Y-122392814D01*
X167614750Y-121938686D02*
X167614750Y-122392814D01*
%TO.C,R17*%
X175872224Y-91933500D02*
X175362776Y-91933500D01*
X175872224Y-92978500D02*
X175362776Y-92978500D01*
%TO.C,D1*%
X186513000Y-107956000D02*
X186513000Y-110416000D01*
X187983000Y-107956000D02*
X186513000Y-107956000D01*
X187983000Y-110416000D02*
X187983000Y-107956000D01*
%TO.C,R3*%
X104633500Y-80518724D02*
X104633500Y-80009276D01*
X105678500Y-80518724D02*
X105678500Y-80009276D01*
%TO.C,R16*%
X171855224Y-91933500D02*
X171345776Y-91933500D01*
X171855224Y-92978500D02*
X171345776Y-92978500D01*
%TO.C,R8*%
X104633500Y-70358724D02*
X104633500Y-69849276D01*
X105678500Y-70358724D02*
X105678500Y-69849276D01*
%TO.C,U2*%
X130449000Y-97135000D02*
X132399000Y-97135000D01*
X130449000Y-102255000D02*
X132399000Y-102255000D01*
X134349000Y-102255000D02*
X132399000Y-102255000D01*
X135849000Y-97135000D02*
X132399000Y-97135000D01*
%TO.C,C9*%
X172573733Y-102614000D02*
X172866267Y-102614000D01*
X172573733Y-103634000D02*
X172866267Y-103634000D01*
%TO.C,U1*%
X177488000Y-98918000D02*
X177488000Y-102678000D01*
X178748000Y-98918000D02*
X177488000Y-98918000D01*
X183048000Y-98918000D02*
X184308000Y-98918000D01*
X184308000Y-98918000D02*
X184308000Y-102678000D01*
X184538000Y-104198000D02*
X184208000Y-103958000D01*
X184538000Y-103718000D01*
X184538000Y-104198000D01*
G36*
X184538000Y-104198000D02*
G01*
X184208000Y-103958000D01*
X184538000Y-103718000D01*
X184538000Y-104198000D01*
G37*
%TO.C,F1*%
X184198000Y-109646267D02*
X184198000Y-109303733D01*
X185218000Y-109646267D02*
X185218000Y-109303733D01*
%TO.C,R11*%
X104633500Y-85089276D02*
X104633500Y-85598724D01*
X105678500Y-85089276D02*
X105678500Y-85598724D01*
%TO.C,C3*%
X178285000Y-111126000D02*
X182670000Y-111126000D01*
X182670000Y-108106000D02*
X178285000Y-108106000D01*
X182670000Y-111126000D02*
X182670000Y-108106000D01*
%TO.C,R18*%
X179682224Y-91933500D02*
X179172776Y-91933500D01*
X179682224Y-92978500D02*
X179172776Y-92978500D01*
%TO.C,J2*%
X110430000Y-58614000D02*
X111760000Y-58614000D01*
X110430000Y-59944000D02*
X110430000Y-58614000D01*
X110430000Y-61214000D02*
X113030000Y-61214000D01*
X110430000Y-63814000D02*
X110430000Y-61214000D01*
X110430000Y-112074000D02*
X110430000Y-106874000D01*
X113030000Y-61214000D02*
X113030000Y-58614000D01*
X168810000Y-58594000D02*
X113030000Y-58614000D01*
X168810000Y-63794000D02*
X110430000Y-63814000D01*
X168810000Y-63794000D02*
X168810000Y-58594000D01*
X168910000Y-106874000D02*
X110430000Y-106874000D01*
X168910000Y-112074000D02*
X110430000Y-112074000D01*
X168910000Y-112074000D02*
X168910000Y-106874000D01*
X112820000Y-61014000D02*
X110660000Y-61014000D01*
X110660000Y-58834000D01*
X112820000Y-58834000D01*
X112820000Y-61014000D01*
X169610000Y-112794000D02*
X109710000Y-112794000D01*
X109710000Y-57844000D01*
X169610000Y-57844000D01*
X169610000Y-112794000D01*
%TO.C,C1*%
X172573733Y-100836000D02*
X172866267Y-100836000D01*
X172573733Y-101856000D02*
X172866267Y-101856000D01*
%TO.C,R19*%
X161277250Y-121911026D02*
X161277250Y-122420474D01*
X162322250Y-121911026D02*
X162322250Y-122420474D01*
%TO.C,R2*%
X191747250Y-118101026D02*
X191747250Y-118610474D01*
X192792250Y-118101026D02*
X192792250Y-118610474D01*
%TO.C,C2*%
X171478000Y-111238000D02*
X175863000Y-111238000D01*
X175863000Y-108218000D02*
X171478000Y-108218000D01*
X175863000Y-111238000D02*
X175863000Y-108218000D01*
%TO.C,R13*%
X104633500Y-75438724D02*
X104633500Y-74929276D01*
X105678500Y-75438724D02*
X105678500Y-74929276D01*
%TO.C,R6*%
X130707224Y-103109500D02*
X130197776Y-103109500D01*
X130707224Y-104154500D02*
X130197776Y-104154500D01*
%TO.C,R14*%
X162799500Y-103529224D02*
X162799500Y-103019776D01*
X163844500Y-103529224D02*
X163844500Y-103019776D01*
%TO.C,J1*%
X187264000Y-95938000D02*
X187264000Y-97638000D01*
X187564000Y-96238000D02*
X202064000Y-96238000D01*
X187564000Y-98238000D02*
X187564000Y-96238000D01*
X187564000Y-105438000D02*
X187564000Y-103438000D01*
X188564000Y-95938000D02*
X187264000Y-95938000D01*
X188864000Y-105438000D02*
X187564000Y-105438000D01*
X202064000Y-96238000D02*
X202064000Y-105438000D01*
X202064000Y-105438000D02*
X193464000Y-105438000D01*
%TO.C,U3*%
X170578000Y-79198000D02*
X170578000Y-89478000D01*
X170578000Y-89478000D02*
X180978000Y-89478000D01*
X170638000Y-81688000D02*
X170638000Y-83338000D01*
X170638000Y-85338000D02*
X170638000Y-86988000D01*
X170638000Y-86988000D02*
X180918000Y-86988000D01*
X180918000Y-81688000D02*
X170638000Y-81688000D01*
X180918000Y-86988000D02*
X180918000Y-81688000D01*
X180978000Y-79198000D02*
X170578000Y-79198000D01*
X180978000Y-89478000D02*
X180978000Y-79198000D01*
X170638000Y-83338000D02*
G75*
G02*
X170638000Y-85338000I0J-1000000D01*
G01*
%TO.C,R4*%
X170157250Y-118610474D02*
X170157250Y-118101026D01*
X171202250Y-118610474D02*
X171202250Y-118101026D01*
%TO.C,R15*%
X164831500Y-103632724D02*
X164831500Y-103123276D01*
X165876500Y-103632724D02*
X165876500Y-103123276D01*
%TO.C,R10*%
X104633500Y-95758724D02*
X104633500Y-95249276D01*
X105678500Y-95758724D02*
X105678500Y-95249276D01*
%TO.C,R1*%
X185397250Y-118101026D02*
X185397250Y-118610474D01*
X186442250Y-118101026D02*
X186442250Y-118610474D01*
%TO.C,C5*%
X173979750Y-118502017D02*
X173979750Y-118209483D01*
X174999750Y-118502017D02*
X174999750Y-118209483D01*
%TD*%
M02*
