M48
; DRILL file {KiCad 8.0.3} date 2024-06-28T15:18:07+0900
; FORMAT={-:-/ absolute / inch / decimal}
; #@! TF.CreationDate,2024-06-28T15:18:07+09:00
; #@! TF.GenerationSoftware,Kicad,Pcbnew,8.0.3
; #@! TF.FileFunction,Plated,1,2,PTH
FMAT,2
INCH
; #@! TA.AperFunction,Plated,PTH,ViaDrill
T1C0.0118
; #@! TA.AperFunction,Plated,PTH,ComponentDrill
T2C0.0315
; #@! TA.AperFunction,Plated,PTH,ComponentDrill
T3C0.0394
%
G90
G05
T1
X4.1895Y-3.9945
X4.1896Y-2.9957
X4.1898Y-3.5943
X4.1899Y-3.1241
X4.1902Y-2.7242
X4.1902Y-3.3256
X4.1903Y-3.7945
X4.3896Y-2.5121
X4.84Y-4.18
X5.02Y-4.12
X5.0283Y-2.7883
X5.1Y-2.95
X5.1653Y-4.1667
X5.38Y-3.03
X5.38Y-3.9
X6.11Y-3.7764
X6.14Y-3.8
X6.2024Y-4.8494
X6.35Y-4.17
X6.654Y-4.794
X6.7197Y-4.5408
X6.7747Y-4.4047
X6.88Y-3.59
X6.9197Y-4.7597
X6.9498Y-4.3898
X7.2767Y-4.6667
X7.4697Y-4.6597
T2
X6.7704Y-3.1704
X6.7704Y-3.4704
X6.8704Y-3.1704
X6.8704Y-3.4704
X6.9704Y-3.1704
X6.9704Y-3.4704
X7.0704Y-3.1704
X7.0704Y-3.4704
T3
X4.3201Y-4.6097
X4.4Y-2.36
X4.4Y-2.46
X4.4Y-4.26
X4.4Y-4.36
X4.4201Y-4.6097
X4.4213Y-2.71
X4.4213Y-2.81
X4.4213Y-2.91
X4.4213Y-3.01
X4.4213Y-3.11
X4.4213Y-3.21
X4.4213Y-3.31
X4.4213Y-3.41
X4.4213Y-3.51
X4.4213Y-3.61
X4.4213Y-3.71
X4.4213Y-3.81
X4.4213Y-3.91
X4.4213Y-4.01
X4.5Y-2.36
X4.5Y-2.46
X4.5Y-4.26
X4.5Y-4.36
X4.6Y-2.36
X4.6Y-2.46
X4.6Y-4.26
X4.6Y-4.36
X4.6701Y-4.6097
X4.7Y-2.36
X4.7Y-2.46
X4.7Y-4.26
X4.7Y-4.36
X4.7701Y-4.6097
X4.8Y-2.36
X4.8Y-2.46
X4.8Y-4.26
X4.8Y-4.36
X4.8701Y-4.6097
X4.9Y-2.36
X4.9Y-2.46
X4.9Y-4.26
X4.9Y-4.36
X4.9701Y-4.6097
X5.0Y-2.36
X5.0Y-2.46
X5.0Y-4.26
X5.0Y-4.36
X5.1Y-2.36
X5.1Y-2.46
X5.1Y-4.26
X5.1Y-4.36
X5.2Y-2.36
X5.2Y-2.46
X5.2Y-4.26
X5.2Y-4.36
X5.2201Y-4.6097
X5.3Y-2.36
X5.3Y-2.46
X5.3Y-4.26
X5.3Y-4.36
X5.3201Y-4.6097
X5.4Y-2.36
X5.4Y-2.46
X5.4Y-4.26
X5.4Y-4.36
X5.4201Y-4.6097
X5.5Y-2.36
X5.5Y-2.46
X5.5Y-4.26
X5.5Y-4.36
X5.5201Y-4.6097
X5.6Y-2.36
X5.6Y-2.46
X5.6Y-4.26
X5.6Y-4.36
X5.7Y-2.36
X5.7Y-2.46
X5.7Y-4.26
X5.7Y-4.36
X5.7701Y-4.6097
X5.8Y-2.36
X5.8Y-2.46
X5.8Y-4.26
X5.8Y-4.36
X5.8701Y-4.6097
X5.9Y-2.36
X5.9Y-2.46
X5.9Y-4.26
X5.9Y-4.36
X5.9701Y-4.6097
X6.0Y-2.36
X6.0Y-2.46
X6.0Y-4.26
X6.0Y-4.36
X6.0701Y-4.6097
X6.1Y-2.36
X6.1Y-2.46
X6.1Y-4.26
X6.1Y-4.36
X6.2Y-2.36
X6.2Y-2.46
X6.2Y-4.26
X6.2Y-4.36
X6.3Y-2.36
X6.3Y-2.46
X6.3Y-4.26
X6.3Y-4.36
X6.3201Y-4.6097
X6.4Y-2.36
X6.4Y-2.46
X6.4Y-4.26
X6.4Y-4.36
X6.4201Y-4.6097
X6.5Y-2.36
X6.5Y-2.46
X6.5Y-4.26
X6.5Y-4.36
X6.5201Y-4.6097
X6.6Y-2.36
X6.6Y-2.46
X6.6Y-4.26
X6.6Y-4.36
X7.7402Y-3.21
X7.7402Y-3.31
X7.7402Y-3.41
X7.7402Y-3.51
T3
G00X7.412Y-3.9188
M15
G01X7.412Y-4.0212
M16
G05
G00X7.5694Y-4.159
M15
G01X7.4828Y-4.159
M16
G05
G00X7.66Y-3.9267
M15
G01X7.66Y-4.0133
M16
G05
M30
